<svg width="24" height="20" viewBox="0 0 16 12" fill="none" xmlns="http://www.w3.org/2000/svg">
<path d="M12.84 11.1C12.5667 11.1 12.34 10.8733 12.34 10.6V2.73331C12.34 2.05998 12.2 1.83331 11.3533 1.83331H10.66C9.81334 1.83331 9.67334 2.05998 9.67334 2.73331V10.6C9.67334 10.8733 9.44667 11.1 9.17334 11.1C8.90001 11.1 8.67334 10.8733 8.67334 10.6V2.73331C8.67334 1.45331 9.32667 0.833313 10.66 0.833313H11.3533C12.6933 0.833313 13.34 1.45331 13.34 2.73331V10.6C13.34 10.8733 13.1133 11.1 12.84 11.1Z" fill="#6C6F75"/>
<path d="M7.17332 11.1C6.89999 11.1 6.67332 10.8734 6.67332 10.6V6.06669C6.67332 5.39335 6.53332 5.16669 5.68665 5.16669H4.99332C4.14665 5.16669 4.00665 5.39335 4.00665 6.06669V10.6C4.00665 10.8734 3.77999 11.1 3.50665 11.1C3.23332 11.1 3.00665 10.8734 3.00665 10.6V6.06669C3.00665 4.78669 3.65999 4.16669 4.99332 4.16669H5.68665C7.02665 4.16669 7.67332 4.78669 7.67332 6.06669V10.6C7.67332 10.8734 7.44665 11.1 7.17332 11.1Z" fill="#6C6F75"/>
<path d="M14.6666 11.1667H1.33331C1.05998 11.1667 0.833313 10.94 0.833313 10.6667C0.833313 10.3934 1.05331 10.1667 1.33331 10.1667H14.6666C14.94 10.1667 15.1666 10.3934 15.1666 10.6667C15.1666 10.94 14.9466 11.1667 14.6666 11.1667Z" fill="#6C6F75"/>
</svg>
