<svg width="27" height="27" viewBox="0 0 19 19" fill="none" xmlns="http://www.w3.org/2000/svg">
<path d="M6.53024 13.007C7.90394 14.1239 8.1352 15.3105 7.22401 16.5668C6.10081 18.0796 4.02189 18.6291 2.26214 17.7781L2.2474 17.7709C2.24314 17.7689 2.23889 17.7668 2.23464 17.7647C0.256451 16.7994 -0.561504 14.4195 0.407691 12.4492L2.60134 7.98962L3.834 5.48367L5.31545 2.47194C6.03535 1.00841 7.53685 0.180071 9.07391 0.242777C10.5587 0.237171 11.9877 1.05866 12.6845 2.47523L17.5923 12.4525C18.5615 14.4228 17.7435 16.8027 15.7654 17.768C15.7611 17.7701 15.7569 17.7722 15.7526 17.7742L15.7379 17.7813C13.7718 18.7321 11.4074 17.9348 10.4224 15.9991C9.91194 14.9298 10.2524 13.9204 11.4439 12.971H11.4435C12.3395 12.2501 12.9126 11.1467 12.9126 9.91004C12.9126 7.73802 11.1448 5.97726 8.96414 5.97726C6.78346 5.97726 5.01567 7.73802 5.01567 9.91004C5.01567 11.1675 5.60816 12.2871 6.53024 13.007ZM8.9677 11.9711C7.82192 11.9711 6.89309 11.046 6.89309 9.90476C6.89309 8.76354 7.82192 7.83839 8.9677 7.83839C10.1135 7.83839 11.0423 8.76354 11.0423 9.90476C11.0423 11.046 10.1135 11.9711 8.9677 11.9711Z" fill="#FF8F34"/>
</svg>
