<svg width="27" height="34" viewBox="0 0 14 21" fill="none" xmlns="http://www.w3.org/2000/svg">
<path d="M7.48383 9.44844C6.76546 9.75598 5.95019 10.1047 4.89357 10.1047C4.45156 10.1038 4.0117 10.0432 3.58594 9.92438L4.31671 17.4272C4.34257 17.7408 4.48543 18.0331 4.71692 18.2463C4.94839 18.4594 5.25157 18.5777 5.56624 18.5777C5.56624 18.5777 6.60236 18.6315 6.9481 18.6315C7.32026 18.6315 8.43601 18.5777 8.43601 18.5777C8.75066 18.5777 9.05376 18.4593 9.28517 18.2462C9.51657 18.0331 9.65943 17.7407 9.68527 17.4272L10.468 9.1363C10.1182 9.01683 9.76519 8.9375 9.36724 8.9375C8.67902 8.93721 8.12445 9.17427 7.48383 9.44844Z" fill="#FFDD00"/>
<path d="M13.8477 5.5565L13.7377 5.00143C13.6389 4.5034 13.4148 4.03281 12.9036 3.85281C12.7397 3.79523 12.5538 3.77048 12.4282 3.65128C12.3025 3.53209 12.2654 3.34697 12.2363 3.17532C12.1825 2.86024 12.132 2.5449 12.0768 2.23038C12.0292 1.95997 11.9915 1.65619 11.8674 1.40812C11.706 1.07502 11.371 0.880227 11.0379 0.751345C10.8672 0.687628 10.6931 0.633728 10.5162 0.589908C9.684 0.370354 8.80906 0.289636 7.9529 0.243627C6.92524 0.186922 5.8949 0.204007 4.86971 0.294748C4.10665 0.364165 3.30297 0.448113 2.57785 0.712063C2.31282 0.808657 2.03972 0.924618 1.8382 1.12937C1.59093 1.38095 1.51021 1.77001 1.69076 2.08373C1.8191 2.30652 2.0365 2.46392 2.26708 2.56804C2.56743 2.70221 2.8811 2.8043 3.20288 2.87262C4.09885 3.07065 5.02684 3.14841 5.94221 3.1815C6.95674 3.22245 7.97291 3.18926 8.9826 3.08222C9.23227 3.05478 9.48153 3.02186 9.73032 2.98348C10.0233 2.93854 10.2114 2.5554 10.125 2.28849C10.0217 1.96939 9.74403 1.84561 9.43002 1.89377C9.38376 1.90104 9.33773 1.90777 9.29148 1.91449L9.25811 1.91934C9.15171 1.93279 9.04537 1.94535 8.93897 1.95701C8.71928 1.98069 8.49896 2.00006 8.27817 2.01513C7.78362 2.04957 7.28778 2.06544 6.79212 2.06624C6.30516 2.06624 5.8179 2.05252 5.33196 2.0205C5.11025 2.00597 4.88908 1.9875 4.66845 1.96508C4.56809 1.95459 4.468 1.94356 4.36791 1.93118L4.27266 1.91907L4.25195 1.91611L4.1532 1.90185C3.95141 1.87144 3.74961 1.83647 3.54996 1.79422C3.52982 1.78975 3.5118 1.77855 3.49889 1.76245C3.48597 1.74636 3.47893 1.72634 3.47893 1.7057C3.47893 1.68507 3.48597 1.66505 3.49889 1.64896C3.5118 1.63286 3.52982 1.62165 3.54996 1.61718H3.55373C3.72674 1.58032 3.90109 1.54884 4.07598 1.5214C4.13428 1.51225 4.19275 1.50328 4.25141 1.49449H4.25302C4.36253 1.48723 4.47257 1.46758 4.58155 1.45467C5.52962 1.35605 6.48337 1.32243 7.43601 1.35404C7.89853 1.3675 8.36077 1.39467 8.82113 1.44149C8.92013 1.45171 9.01865 1.46248 9.11712 1.47458C9.1548 1.47915 9.19272 1.48454 9.23063 1.48911L9.30705 1.50014C9.52983 1.53333 9.75143 1.57359 9.97193 1.62095C10.2985 1.69198 10.718 1.71512 10.8633 2.07297C10.9096 2.18651 10.9306 2.31271 10.9561 2.4319L10.9887 2.58392C10.9896 2.58665 10.9901 2.58943 10.9906 2.59226C11.0676 2.95101 11.1446 3.30975 11.2217 3.6685C11.2273 3.695 11.2275 3.72239 11.2221 3.74894C11.2167 3.7755 11.2059 3.80066 11.1903 3.82285C11.1748 3.84504 11.1548 3.86378 11.1317 3.87792C11.1086 3.89206 11.0828 3.90128 11.0559 3.90501H11.0538L11.0067 3.91147L10.9602 3.91766C10.8128 3.93685 10.6651 3.95478 10.5173 3.97147C10.2262 4.00465 9.9346 4.03335 9.64258 4.05756C9.06228 4.10582 8.48087 4.13748 7.89824 4.15255C7.60138 4.16043 7.30464 4.16411 7.00796 4.16358C5.827 4.16264 4.64714 4.09401 3.47409 3.95801C3.34709 3.94294 3.2201 3.9268 3.0931 3.91039C3.19157 3.92303 3.02153 3.9007 2.98709 3.89586C2.90637 3.88456 2.82566 3.87281 2.74493 3.86061C2.47399 3.81998 2.20466 3.76994 1.93426 3.72608C1.60735 3.67227 1.2947 3.69917 0.998999 3.86061C0.756274 3.99344 0.559825 4.19711 0.435855 4.44448C0.30832 4.70815 0.27038 4.99524 0.213342 5.27857C0.1563 5.56189 0.0675099 5.86673 0.101143 6.15759C0.17352 6.78532 0.61236 7.29544 1.24357 7.40954C1.83739 7.51717 2.43444 7.60432 3.0331 7.67858C5.38477 7.96663 7.76058 8.00104 10.1196 7.78136C10.3117 7.76345 10.5036 7.74385 10.6952 7.72273C10.755 7.71614 10.8156 7.72303 10.8724 7.74292C10.9292 7.76275 10.9809 7.79507 11.0236 7.83748C11.0663 7.87988 11.099 7.93133 11.1192 7.98798C11.1395 8.04468 11.1468 8.10517 11.1407 8.16508L11.081 8.74567C10.9606 9.91898 10.8403 11.0922 10.7199 12.2653C10.5944 13.4972 10.4679 14.729 10.3408 15.9608C10.3049 16.3077 10.269 16.6546 10.2332 17.0013C10.1987 17.3427 10.1939 17.6949 10.129 18.0323C10.0268 18.5629 9.66761 18.8887 9.14348 19.008C8.66328 19.1172 8.17276 19.1746 7.68031 19.1791C7.13437 19.182 6.58872 19.1578 6.04283 19.1607C5.46002 19.164 4.74621 19.1102 4.29634 18.6765C3.90109 18.2955 3.84647 17.699 3.79266 17.1832C3.72091 16.5003 3.64979 15.8175 3.57929 15.1348L3.18378 11.3386L2.9279 8.88234C2.92359 8.84174 2.91929 8.80167 2.91525 8.76078C2.88458 8.46777 2.67713 8.18094 2.35022 8.1957C2.0704 8.20813 1.75237 8.44595 1.7852 8.76078L1.97488 10.5818L2.36717 14.3486C2.47892 15.4186 2.5904 16.4887 2.70162 17.559C2.72314 17.7641 2.74332 17.9696 2.76592 18.1747C2.88888 19.295 3.74449 19.8988 4.80406 20.0689C5.4229 20.1684 6.05683 20.1889 6.68479 20.1991C7.48985 20.212 8.3029 20.2429 9.09478 20.0971C10.2682 19.8819 11.1485 19.0983 11.2742 17.883C11.31 17.5321 11.3459 17.1812 11.3818 16.8301C11.5011 15.6693 11.6202 14.5082 11.7391 13.3472L12.1282 9.55341L12.3066 7.81473C12.3154 7.72851 12.3519 7.64748 12.4104 7.58355C12.4689 7.51962 12.5465 7.47628 12.6316 7.45983C12.9671 7.39443 13.2878 7.28278 13.5265 7.02746C13.9064 6.62093 13.982 6.09086 13.8477 5.5565ZM1.22635 5.93157C1.23147 5.92915 1.22205 5.97303 1.21802 5.99344C1.21721 5.96253 1.21882 5.93507 1.22635 5.93157ZM1.25891 6.18343C1.2616 6.18151 1.26967 6.1923 1.27801 6.20519C1.26537 6.19335 1.2573 6.18448 1.25864 6.18343H1.25891ZM1.29093 6.22567C1.3025 6.24533 1.30869 6.25769 1.29093 6.22567V6.22567ZM1.35523 6.27788H1.35685C1.35685 6.27974 1.35981 6.28161 1.36089 6.28353C1.3591 6.28143 1.35712 6.27957 1.35497 6.27788H1.35523ZM12.616 6.19983C12.4954 6.31445 12.3138 6.36771 12.1344 6.39437C10.1218 6.69303 8.07989 6.84423 6.04522 6.7775C4.58908 6.72774 3.14826 6.56604 1.70663 6.36234C1.56537 6.34245 1.41228 6.31661 1.31515 6.21248C1.13219 6.01608 1.22205 5.62054 1.26967 5.38323C1.31326 5.16583 1.39667 4.87605 1.65524 4.8451C2.05883 4.79775 2.52754 4.96807 2.92682 5.02861C3.40754 5.10197 3.89006 5.16072 4.37437 5.20484C6.44131 5.39319 8.54294 5.36386 10.6007 5.08834C10.9758 5.03794 11.3495 4.97937 11.7219 4.91264C12.0536 4.85318 12.4215 4.74152 12.6219 5.08511C12.7594 5.31919 12.7777 5.63238 12.7564 5.89687C12.7499 6.01211 12.6995 6.12049 12.6157 6.19983H12.616Z" fill="black"/>
</svg>
