<svg width="20" height="20" viewBox="0 0 14 16" fill="none" xmlns="http://www.w3.org/2000/svg">
<path d="M4.33333 3.83334C4.05999 3.83334 3.83333 3.60668 3.83333 3.33334V1.33334C3.83333 1.06001 4.05999 0.833344 4.33333 0.833344C4.60666 0.833344 4.83333 1.06001 4.83333 1.33334V3.33334C4.83333 3.60668 4.60666 3.83334 4.33333 3.83334Z" fill="#98A5B3"/>
<path d="M9.66667 3.83334C9.39334 3.83334 9.16667 3.60668 9.16667 3.33334V1.33334C9.16667 1.06001 9.39334 0.833344 9.66667 0.833344C9.94001 0.833344 10.1667 1.06001 10.1667 1.33334V3.33334C10.1667 3.60668 9.94001 3.83334 9.66667 3.83334Z" fill="#98A5B3"/>
<path d="M4.66667 9.66667C4.58 9.66667 4.49333 9.64668 4.41333 9.61335C4.32667 9.58001 4.26 9.53333 4.19333 9.47333C4.07333 9.34667 4 9.18 4 9C4 8.91334 4.02 8.82667 4.05333 8.74667C4.08667 8.66667 4.13333 8.59334 4.19333 8.52668C4.26 8.46668 4.32667 8.42 4.41333 8.38666C4.65333 8.28666 4.95333 8.34001 5.14 8.52668C5.26 8.65334 5.33333 8.82667 5.33333 9C5.33333 9.04 5.32667 9.08668 5.32 9.13335C5.31333 9.17335 5.3 9.21334 5.28 9.25334C5.26667 9.29334 5.24667 9.33334 5.22 9.37334C5.2 9.40667 5.16667 9.44 5.14 9.47333C5.01333 9.59333 4.84 9.66667 4.66667 9.66667Z" fill="#98A5B3"/>
<path d="M6.99999 9.66667C6.91333 9.66667 6.82666 9.64668 6.74666 9.61335C6.65999 9.58002 6.59333 9.53333 6.52666 9.47333C6.40666 9.34667 6.33333 9.18001 6.33333 9.00001C6.33333 8.91334 6.35333 8.82667 6.38666 8.74667C6.42 8.66667 6.46666 8.59335 6.52666 8.52668C6.59333 8.46668 6.65999 8.42 6.74666 8.38666C6.98666 8.28 7.28666 8.34001 7.47333 8.52668C7.59333 8.65335 7.66666 8.82667 7.66666 9.00001C7.66666 9.04001 7.65999 9.08668 7.65333 9.13335C7.64666 9.17335 7.63333 9.21334 7.61333 9.25334C7.59999 9.29334 7.58 9.33334 7.55333 9.37334C7.53333 9.40667 7.49999 9.44 7.47333 9.47333C7.34666 9.59333 7.17333 9.66667 6.99999 9.66667Z" fill="#98A5B3"/>
<path d="M9.33334 9.66667C9.24667 9.66667 9.16 9.64668 9.08 9.61335C8.99334 9.58002 8.92667 9.53333 8.86001 9.47333C8.83334 9.44 8.80667 9.40667 8.78 9.37334C8.75334 9.33334 8.73334 9.29334 8.72001 9.25334C8.70001 9.21334 8.68667 9.17335 8.68001 9.13335C8.67334 9.08668 8.66667 9.04001 8.66667 9.00001C8.66667 8.82667 8.74001 8.65335 8.86001 8.52668C8.92667 8.46668 8.99334 8.42 9.08 8.38666C9.32667 8.28 9.62 8.34001 9.80667 8.52668C9.92667 8.65335 10 8.82667 10 9.00001C10 9.04001 9.99334 9.08668 9.98667 9.13335C9.98 9.17335 9.96667 9.21334 9.94667 9.25334C9.93334 9.29334 9.91334 9.33334 9.88667 9.37334C9.86667 9.40667 9.83334 9.44 9.80667 9.47333C9.68 9.59333 9.50667 9.66667 9.33334 9.66667Z" fill="#98A5B3"/>
<path d="M4.66667 12C4.58 12 4.49333 11.98 4.41333 11.9467C4.33333 11.9134 4.26 11.8667 4.19333 11.8067C4.07333 11.68 4 11.5067 4 11.3333C4 11.2467 4.02 11.16 4.05333 11.08C4.08667 10.9933 4.13333 10.92 4.19333 10.86C4.44 10.6134 4.89333 10.6134 5.14 10.86C5.26 10.9867 5.33333 11.16 5.33333 11.3333C5.33333 11.5067 5.26 11.68 5.14 11.8067C5.01333 11.9267 4.84 12 4.66667 12Z" fill="#98A5B3"/>
<path d="M6.99999 12C6.82666 12 6.65333 11.9267 6.52666 11.8067C6.40666 11.68 6.33333 11.5067 6.33333 11.3333C6.33333 11.2467 6.35333 11.16 6.38666 11.08C6.42 10.9933 6.46666 10.92 6.52666 10.86C6.77333 10.6134 7.22666 10.6134 7.47333 10.86C7.53333 10.92 7.57999 10.9933 7.61333 11.08C7.64666 11.16 7.66666 11.2467 7.66666 11.3333C7.66666 11.5067 7.59333 11.68 7.47333 11.8067C7.34666 11.9267 7.17333 12 6.99999 12Z" fill="#98A5B3"/>
<path d="M9.33334 12C9.16 12 8.98667 11.9267 8.86001 11.8067C8.80001 11.7467 8.75334 11.6734 8.72001 11.5867C8.68667 11.5067 8.66667 11.42 8.66667 11.3334C8.66667 11.2467 8.68667 11.16 8.72001 11.08C8.75334 10.9934 8.80001 10.92 8.86001 10.86C9.01334 10.7067 9.24667 10.6334 9.46 10.68C9.50667 10.6867 9.54667 10.7 9.58667 10.72C9.62667 10.7334 9.66667 10.7534 9.70667 10.78C9.74001 10.8 9.77334 10.8334 9.80667 10.86C9.92667 10.9867 10 11.16 10 11.3334C10 11.5067 9.92667 11.68 9.80667 11.8067C9.68 11.9267 9.50667 12 9.33334 12Z" fill="#98A5B3"/>
<path d="M12.6667 6.55997H1.33333C1.05999 6.55997 0.833328 6.3333 0.833328 6.05997C0.833328 5.78663 1.05999 5.55997 1.33333 5.55997H12.6667C12.94 5.55997 13.1667 5.78663 13.1667 6.05997C13.1667 6.3333 12.94 6.55997 12.6667 6.55997Z" fill="#98A5B3"/>
<path d="M9.66667 15.1667H4.33333C1.9 15.1667 0.5 13.7667 0.5 11.3333V5.66668C0.5 3.23334 1.9 1.83334 4.33333 1.83334H9.66667C12.1 1.83334 13.5 3.23334 13.5 5.66668V11.3333C13.5 13.7667 12.1 15.1667 9.66667 15.1667ZM4.33333 2.83334C2.42667 2.83334 1.5 3.76001 1.5 5.66668V11.3333C1.5 13.24 2.42667 14.1667 4.33333 14.1667H9.66667C11.5733 14.1667 12.5 13.24 12.5 11.3333V5.66668C12.5 3.76001 11.5733 2.83334 9.66667 2.83334H4.33333Z" fill="#98A5B3"/>
</svg>
