<svg width="24" height="20" viewBox="0 0 16 12" fill="none" xmlns="http://www.w3.org/2000/svg">
<path d="M11.12 11.8867C11.1133 11.8867 11.1 11.8867 11.0933 11.8867H3.69999C1.73999 11.7467 0.859985 10.24 0.859985 8.89335C0.859985 7.69335 1.55999 6.36001 3.08665 5.99335C2.65999 4.32668 3.01999 2.76001 4.10665 1.62668C5.33999 0.333346 7.31999 -0.179988 9.01999 0.346679C10.58 0.826679 11.68 2.11335 12.08 3.90001C13.4467 4.20668 14.5333 5.24001 14.9733 6.66668C15.4467 8.22001 15.02 9.81335 13.8533 10.8333C13.1067 11.5067 12.1333 11.8867 11.12 11.8867ZM3.71332 6.90001C3.70665 6.90001 3.70665 6.90001 3.69999 6.90001C2.43332 6.99335 1.85332 7.96668 1.85332 8.89335C1.85332 9.82001 2.43332 10.7933 3.72665 10.8867H11.0867C11.86 10.8733 12.6 10.6067 13.1733 10.0867C14.2133 9.17335 14.2867 7.87335 14.0067 6.96001C13.7267 6.04001 12.9467 5.00001 11.5867 4.82668C11.3667 4.80001 11.1933 4.63335 11.1533 4.41335C10.8867 2.81335 10.02 1.70668 8.71999 1.30668C7.36665 0.893346 5.80665 1.30001 4.82665 2.32001C3.93999 3.24668 3.68665 4.52668 4.09999 5.93335C4.43999 5.98001 4.76665 6.08001 5.06665 6.23335C5.31332 6.36001 5.41332 6.66001 5.28665 6.90668C5.15999 7.15335 4.85999 7.25335 4.61332 7.12668C4.33999 6.98668 4.03999 6.91335 3.73999 6.91335C3.73332 6.90001 3.72665 6.90001 3.71332 6.90001Z" fill="#6C6F75"/>
</svg>
