<svg width="24" height="24" viewBox="0 0 16 16" fill="none" xmlns="http://www.w3.org/2000/svg">
<path d="M5.33331 9.83332C5.20665 9.83332 5.07998 9.78668 4.97998 9.68668L3.64665 8.35334C3.45331 8.16001 3.45331 7.83997 3.64665 7.64664L4.97998 6.3133C5.17331 6.11997 5.49331 6.11997 5.68665 6.3133C5.87998 6.50664 5.87998 6.82668 5.68665 7.02001L4.70665 7.99999L5.68665 8.97997C5.87998 9.1733 5.87998 9.49334 5.68665 9.68668C5.58665 9.78668 5.45998 9.83332 5.33331 9.83332Z" fill="#6C6F75"/>
<path d="M10.6666 9.83332C10.5399 9.83332 10.4133 9.78668 10.3133 9.68668C10.1199 9.49334 10.1199 9.1733 10.3133 8.97997L11.2933 7.99999L10.3133 7.02001C10.1199 6.82668 10.1199 6.50664 10.3133 6.3133C10.5066 6.11997 10.8266 6.11997 11.0199 6.3133L12.3533 7.64664C12.5466 7.83997 12.5466 8.16001 12.3533 8.35334L11.0199 9.68668C10.9199 9.78668 10.7933 9.83332 10.6666 9.83332Z" fill="#6C6F75"/>
<path d="M7.99998 15.1667C4.04665 15.1667 0.833313 11.9533 0.833313 8.00001C0.833313 4.04668 4.04665 0.833344 7.99998 0.833344C11.9533 0.833344 15.1666 4.04668 15.1666 8.00001C15.1666 11.9533 11.9533 15.1667 7.99998 15.1667ZM7.99998 1.83334C4.59998 1.83334 1.83331 4.60001 1.83331 8.00001C1.83331 11.4 4.59998 14.1667 7.99998 14.1667C11.4 14.1667 14.1666 11.4 14.1666 8.00001C14.1666 4.60001 11.4 1.83334 7.99998 1.83334Z" fill="#6C6F75"/>
<path d="M7.33339 10.0534C7.26672 10.0534 7.20006 10.04 7.14006 10.0134C6.88673 9.9067 6.76673 9.61338 6.88006 9.35338L8.2134 6.24002C8.32006 5.98668 8.61339 5.86667 8.86673 5.98001C9.12006 6.08667 9.24006 6.38004 9.12673 6.64004L7.79339 9.75336C7.71339 9.94003 7.52672 10.0534 7.33339 10.0534Z" fill="#6C6F75"/>
</svg>
