<svg width="24" height="24" viewBox="0 0 18 18" fill="none" xmlns="http://www.w3.org/2000/svg">
<path d="M9 0.666672C4.40833 0.666672 0.666668 4.40834 0.666668 9.00001C0.666668 13.5917 4.40833 17.3333 9 17.3333C13.5917 17.3333 17.3333 13.5917 17.3333 9.00001C17.3333 4.40834 13.5917 0.666672 9 0.666672ZM12.9833 7.08334L8.25833 11.8083C8.14167 11.925 7.98334 11.9917 7.81667 11.9917C7.65 11.9917 7.49167 11.925 7.375 11.8083L5.01667 9.45001C4.775 9.20834 4.775 8.80834 5.01667 8.56667C5.25833 8.32501 5.65833 8.32501 5.9 8.56667L7.81667 10.4833L12.1 6.20001C12.3417 5.95834 12.7417 5.95834 12.9833 6.20001C13.225 6.44167 13.225 6.83334 12.9833 7.08334Z" fill="#78C552"/>
</svg>
