<svg width="27" height="35" viewBox="0 0 23 31" fill="none" xmlns="http://www.w3.org/2000/svg">
<path fill-rule="evenodd" clip-rule="evenodd" d="M14.8638 3.87572C15.7538 4.59134 16.4713 5.50407 16.9619 6.54435C17.4524 7.58463 17.703 8.72502 17.6944 9.87864V20.5688C17.6876 21.757 17.4317 22.93 16.9435 24.0095C16.4554 25.089 15.7464 26.0502 14.8638 26.829C16.1782 26.3874 17.3239 25.5389 18.1404 24.4023C18.9569 23.2657 19.4033 21.898 19.4172 20.4906V9.8003C19.4298 8.43456 18.9863 7.10487 18.1592 6.02867C17.332 4.95248 16.1702 4.19345 14.8638 3.87572ZM16.1199 9.95011V20.6404C16.1036 22.3526 15.4463 23.9941 14.2818 25.231C13.1173 26.4679 11.533 27.2072 9.85137 27.2987C9.04021 27.3436 8.22859 27.2191 7.46661 26.9327C6.70463 26.6464 6.00846 26.2043 5.42105 25.6337C4.83365 25.0632 4.36748 24.3763 4.05132 23.6155C3.73515 22.8546 3.57571 22.036 3.58281 21.2101V10.5197C3.59915 8.80759 4.25645 7.16608 5.42096 5.9292C6.58547 4.69231 8.16971 3.95296 9.85137 3.86158C10.6625 3.81662 11.4741 3.94116 12.2361 4.22751C12.9981 4.51386 13.6943 4.95595 14.2817 5.52648C14.8691 6.09702 15.3352 6.7839 15.6514 7.54473C15.9676 8.30556 16.127 9.12419 16.1199 9.95011ZM9.85137 2.26073L13.5507 2.09261V2.10289C14.5332 2.10181 15.5061 2.29876 16.4133 2.68237C17.3204 3.06597 18.1438 3.62861 18.8357 4.33775C19.5276 5.04689 20.0744 5.88846 20.4445 6.8138C20.8146 7.73914 21.0005 8.72989 20.9916 9.72875V20.419C20.9713 22.4907 20.2015 24.4821 18.829 26.0134C17.4566 27.5447 15.5776 28.5085 13.5508 28.7211V28.7314L9.85139 28.8994L9.858 28.8991L9.85139 28.8994C8.83648 28.9557 7.82101 28.7999 6.86765 28.4416C5.91428 28.0833 5.04324 27.5302 4.3083 26.8163C3.57336 26.1025 2.9901 25.2431 2.59452 24.2911C2.19895 23.3392 1.99945 22.3149 2.00834 21.2816V10.5913C2.02876 8.44908 2.85113 6.39525 4.30814 4.84767C5.76515 3.3001 7.74733 2.37505 9.85139 2.26073H9.85137ZM22.9993 9.95649C23.0151 8.60162 22.7556 7.25802 22.2369 6.0099C21.7182 4.76178 20.9515 3.63602 19.985 2.70319C19.0184 1.77035 17.8728 1.05053 16.6198 0.588836C15.3669 0.127142 14.0337 -0.0664761 12.7038 0.0201133L10.0724 0.162809C4.51446 0.464133 0.000679925 5.30824 0.000679925 10.9753V21.0436C-0.0151161 22.3985 0.244474 23.7421 0.763183 24.9902C1.28189 26.2383 2.04854 27.364 3.01509 28.2968C3.98165 29.2297 5.12727 29.9495 6.38018 30.4112C7.63308 30.8728 8.96627 31.0665 10.2962 30.9799L12.9275 30.8372C18.4855 30.5359 22.9993 25.6918 22.9993 20.0249L22.9993 9.95649Z" fill="black"/>
</svg>
