<svg width="20" height="20" viewBox="0 0 14 14" fill="none" xmlns="http://www.w3.org/2000/svg">
<path d="M7 0.333344C3.32667 0.333344 0.333336 3.32668 0.333336 7.00001C0.333336 10.6733 3.32667 13.6667 7 13.6667C10.6733 13.6667 13.6667 10.6733 13.6667 7.00001C13.6667 3.32668 10.6733 0.333344 7 0.333344ZM10.1867 5.46668L6.40667 9.24668C6.31334 9.34001 6.18667 9.39334 6.05334 9.39334C5.92 9.39334 5.79334 9.34001 5.7 9.24668L3.81334 7.36001C3.62 7.16668 3.62 6.84668 3.81334 6.65334C4.00667 6.46001 4.32667 6.46001 4.52 6.65334L6.05334 8.18668L9.48 4.76001C9.67334 4.56668 9.99334 4.56668 10.1867 4.76001C10.38 4.95334 10.38 5.26668 10.1867 5.46668Z" fill="#78C552"/>
</svg>
