<svg width="18" height="19" viewBox="0 0 18 19" fill="none" xmlns="http://www.w3.org/2000/svg">
<path fill-rule="evenodd" clip-rule="evenodd" d="M9 0.210938C4.03145 0.210938 0 4.24239 0 9.21094C0 14.1795 4.03145 18.2109 9 18.2109C13.9588 18.2109 18 14.1795 18 9.21094C18 4.24239 13.9588 0.210938 9 0.210938ZM14.9447 4.35953C16.0184 5.66755 16.6627 7.33674 16.6822 9.14259C16.4284 9.09383 13.8904 8.57644 11.333 8.89858C11.2744 8.77168 11.2256 8.63499 11.167 8.49836C11.0108 8.12745 10.8352 7.74675 10.6594 7.38557C13.4902 6.23374 14.7787 4.57428 14.9447 4.35953ZM9 1.53849C10.9523 1.53849 12.7386 2.27059 14.0955 3.47124C13.9588 3.66647 12.7972 5.21853 10.064 6.24347C8.80476 3.93002 7.40891 2.03632 7.19415 1.74347C7.77004 1.60681 8.37529 1.53849 9 1.53849ZM5.72996 2.26083C5.93494 2.53415 7.30153 4.43762 8.58026 6.70224C4.98807 7.65889 1.81562 7.63937 1.47397 7.63937C1.9718 5.25758 3.58243 3.27601 5.72996 2.26083ZM1.30803 9.22073C1.30803 9.14259 1.30803 9.06452 1.30803 8.98644C1.63991 8.99617 5.36876 9.045 9.20498 7.89317C9.42953 8.32264 9.6345 8.76189 9.82974 9.20115C9.73209 9.23046 9.62471 9.25976 9.52712 9.28901C5.56399 10.5677 3.45553 14.0623 3.27982 14.3552C2.05965 12.9984 1.30803 11.1925 1.30803 9.22073ZM9 16.9029C7.2234 16.9029 5.58352 16.2977 4.28525 15.2825C4.42191 14.9995 5.98371 11.993 10.3178 10.4799C10.3373 10.4701 10.3471 10.4701 10.3666 10.4604C11.4501 13.2619 11.8894 15.6144 12.0065 16.2879C11.0792 16.6881 10.064 16.9029 9 16.9029ZM13.2852 15.5851C13.2072 15.1166 12.7972 12.8715 11.7917 10.109C14.2028 9.72827 16.3113 10.353 16.5749 10.4409C16.243 12.5786 15.013 14.4235 13.2852 15.5851Z" fill="#C32361"/>
</svg>
