<svg width="20" height="16" viewBox="0 0 14 10" fill="none" xmlns="http://www.w3.org/2000/svg">
<path d="M9.27334 9.39334C9.00667 9.39334 8.78667 9.17334 8.78667 8.90668C8.78667 8.64001 9.00667 8.42001 9.27334 8.42001C11.1533 8.42001 12.6867 6.88668 12.6867 5.00668C12.6867 3.12668 11.1533 1.59334 9.27334 1.59334C7.39334 1.59334 5.86001 3.12668 5.86001 5.00668C5.86001 5.27334 5.64001 5.49334 5.37334 5.49334C5.10667 5.49334 4.88667 5.27334 4.88667 5.00668C4.88667 2.58668 6.85334 0.613342 9.28001 0.613342C11.7067 0.613342 13.6667 2.58001 13.6667 5.00001C13.6667 7.42001 11.7 9.39334 9.27334 9.39334Z" fill="#98A5B3"/>
<path d="M4.72666 0.606659C4.99333 0.606659 5.21333 0.826659 5.21333 1.09333C5.21333 1.35999 4.99333 1.57999 4.72666 1.57999C2.84666 1.57999 1.31333 3.11333 1.31333 4.99333C1.31333 6.87333 2.84666 8.40666 4.72666 8.40666C6.60666 8.40666 8.14 6.87333 8.14 4.99333C8.14 4.72666 8.35999 4.50666 8.62666 4.50666C8.89333 4.50666 9.11333 4.72666 9.11333 4.99333C9.11333 7.41333 7.14666 9.38666 4.72 9.38666C2.29333 9.38666 0.333328 7.41999 0.333328 4.99999C0.333328 2.57999 2.29999 0.606659 4.72666 0.606659Z" fill="#98A5B3"/>
</svg>
