<svg width="16" height="16" viewBox="0 0 12 13" fill="none" xmlns="http://www.w3.org/2000/svg">
<path d="M2.71511 5.54208L1.34311 6.91408C0.780453 7.47674 0.464355 8.23987 0.464355 9.03558C0.464355 9.8313 0.780453 10.5944 1.34311 11.1571C1.90577 11.7197 2.66889 12.0358 3.46461 12.0358C4.26033 12.0358 5.02345 11.7197 5.58611 11.1571L7.41411 9.32808C7.7534 8.98874 8.00634 8.57296 8.1517 8.11563C8.29706 7.65831 8.33058 7.17278 8.24947 6.69982C8.16836 6.22685 7.97497 5.78025 7.68554 5.39749C7.39611 5.01473 7.01909 4.70698 6.58611 4.50008L6.00011 5.08608C5.94062 5.14568 5.88888 5.21254 5.84611 5.28508C6.18064 5.38125 6.48427 5.56306 6.727 5.81254C6.96973 6.06202 7.14315 6.37053 7.23011 6.70757C7.31707 7.0446 7.31457 7.3985 7.22284 7.73427C7.13112 8.07005 6.95335 8.37607 6.70711 8.62208L4.88011 10.4501C4.50483 10.8254 3.99584 11.0362 3.46511 11.0362C2.93438 11.0362 2.42539 10.8254 2.05011 10.4501C1.67483 10.0748 1.464 9.56581 1.464 9.03508C1.464 8.50436 1.67483 7.99537 2.05011 7.62008L2.84311 6.82808C2.73122 6.40881 2.688 5.97418 2.71511 5.54108V5.54208Z" fill="#5C6066"/>
<path d="M4.58611 3.67209C4.24681 4.01143 3.99387 4.42721 3.84852 4.88454C3.70316 5.34186 3.66964 5.82739 3.75075 6.30035C3.83186 6.77332 4.02525 7.21992 4.31468 7.60268C4.60411 7.98544 4.98113 8.29319 5.41411 8.50009L6.18911 7.72409C5.85006 7.63314 5.54091 7.45456 5.29274 7.20629C5.04458 6.95802 4.86612 6.6488 4.77532 6.30971C4.68452 5.97062 4.68456 5.6136 4.77545 5.27453C4.86634 4.93547 5.04488 4.62629 5.29311 4.37809L7.12011 2.55009C7.49539 2.1748 8.00438 1.96397 8.53511 1.96397C9.06584 1.96397 9.57483 2.1748 9.95011 2.55009C10.3254 2.92537 10.5362 3.43436 10.5362 3.96509C10.5362 4.49581 10.3254 5.0048 9.95011 5.38009L9.15711 6.17209C9.26911 6.59209 9.31211 7.02709 9.28511 7.45909L10.6571 6.08709C11.2198 5.52443 11.5359 4.7613 11.5359 3.96559C11.5359 3.16987 11.2198 2.40674 10.6571 1.84409C10.0945 1.28143 9.33133 0.965332 8.53561 0.965332C7.73989 0.965332 6.97677 1.28143 6.41411 1.84409L4.58611 3.67209Z" fill="#5C6066"/>
</svg>
