<svg width="12" height="12" viewBox="0 0 10 8" fill="none" xmlns="http://www.w3.org/2000/svg">
<path fill-rule="evenodd" clip-rule="evenodd" d="M0.1875 7.5C0.1875 7.38397 0.233594 7.27269 0.315641 7.19064C0.397688 7.10859 0.508968 7.0625 0.625 7.0625H9.375C9.49103 7.0625 9.60231 7.10859 9.68436 7.19064C9.76641 7.27269 9.8125 7.38397 9.8125 7.5C9.8125 7.61603 9.76641 7.72731 9.68436 7.80936C9.60231 7.89141 9.49103 7.9375 9.375 7.9375H0.625C0.508968 7.9375 0.397688 7.89141 0.315641 7.80936C0.233594 7.72731 0.1875 7.61603 0.1875 7.5ZM0.1875 4C0.1875 3.88397 0.233594 3.77269 0.315641 3.69064C0.397688 3.60859 0.508968 3.5625 0.625 3.5625H9.375C9.49103 3.5625 9.60231 3.60859 9.68436 3.69064C9.76641 3.77269 9.8125 3.88397 9.8125 4C9.8125 4.11603 9.76641 4.22731 9.68436 4.30936C9.60231 4.39141 9.49103 4.4375 9.375 4.4375H0.625C0.508968 4.4375 0.397688 4.39141 0.315641 4.30936C0.233594 4.22731 0.1875 4.11603 0.1875 4ZM0.1875 0.5C0.1875 0.383968 0.233594 0.272688 0.315641 0.190641C0.397688 0.108594 0.508968 0.0625 0.625 0.0625H9.375C9.49103 0.0625 9.60231 0.108594 9.68436 0.190641C9.76641 0.272688 9.8125 0.383968 9.8125 0.5C9.8125 0.616032 9.76641 0.727312 9.68436 0.809359C9.60231 0.891406 9.49103 0.9375 9.375 0.9375H0.625C0.508968 0.9375 0.397688 0.891406 0.315641 0.809359C0.233594 0.727312 0.1875 0.616032 0.1875 0.5Z" fill="#5C6066"/>
</svg>
