<svg width="14" height="15" viewBox="0 0 12 13" fill="none" xmlns="http://www.w3.org/2000/svg">
<path d="M6.58333 11.25V12.7083L4.83333 11.5417L3.08333 12.7083V11.25H2.79167C2.25018 11.25 1.73088 11.0349 1.34799 10.652C0.965104 10.2691 0.75 9.74981 0.75 9.20832V1.91666C0.75 1.45253 0.934375 1.00741 1.26256 0.67922C1.59075 0.351031 2.03587 0.166656 2.5 0.166656H10.6667C10.8214 0.166656 10.9697 0.228115 11.0791 0.337511C11.1885 0.446907 11.25 0.59528 11.25 0.74999V10.6667C11.25 10.8214 11.1885 10.9697 11.0791 11.0791C10.9697 11.1885 10.8214 11.25 10.6667 11.25H6.58333ZM6.58333 10.0833H10.0833V8.33332H2.79167C2.5596 8.33332 2.33704 8.42551 2.17295 8.58961C2.00885 8.7537 1.91667 8.97626 1.91667 9.20832C1.91667 9.44039 2.00885 9.66295 2.17295 9.82704C2.33704 9.99114 2.5596 10.0833 2.79167 10.0833H3.08333V8.91666H6.58333V10.0833ZM10.0833 7.16666V1.33332H2.5V7.18707C2.59662 7.17337 2.69408 7.16654 2.79167 7.16666H10.0833ZM3.08333 1.91666H4.25V3.08332H3.08333V1.91666ZM3.08333 3.66666H4.25V4.83332H3.08333V3.66666ZM3.08333 5.41666H4.25V6.58332H3.08333V5.41666Z" fill="#515151"/>
</svg>
