<svg width="17" height="19" viewBox="0 0 14 16" fill="none" xmlns="http://www.w3.org/2000/svg">
<path d="M6.99896 15.1743C6.27229 15.1743 5.55229 14.9609 4.98562 14.5409L2.11896 12.4009C1.35896 11.8343 0.765625 10.6476 0.765625 9.7076V4.7476C0.765625 3.72094 1.51896 2.6276 2.48563 2.2676L5.81229 1.02094C6.47229 0.774271 7.51229 0.774271 8.17229 1.02094L11.499 2.2676C12.4656 2.6276 13.219 3.72094 13.219 4.7476V9.70094C13.219 10.6476 12.6256 11.8276 11.8656 12.3943L8.99896 14.5343C8.44563 14.9609 7.72563 15.1743 6.99896 15.1743ZM6.16563 1.96094L2.83896 3.2076C2.27229 3.42094 1.77229 4.14094 1.77229 4.75427V9.7076C1.77229 10.3409 2.21896 11.2276 2.71896 11.6009L5.58563 13.7409C6.35229 14.3143 7.64562 14.3143 8.41896 13.7409L11.2856 11.6009C11.7923 11.2209 12.2323 10.3409 12.2323 9.7076V4.7476C12.2323 4.14094 11.7323 3.42094 11.1656 3.20094L7.83896 1.95427C7.38563 1.79427 6.61229 1.79427 6.16563 1.96094Z" fill="#191925"/>
<path d="M6.71445 10.8295C6.62778 10.8295 6.53445 10.8161 6.44778 10.7828C6.15445 10.6695 5.96111 10.3961 5.96111 10.0828V9.02947H5.79445C5.29445 9.02947 5.11445 8.73614 5.05445 8.61614C5.00112 8.48281 4.90778 8.14947 5.23445 7.78281L6.86778 5.92281C7.07445 5.68947 7.40111 5.60281 7.69445 5.71614C7.98778 5.82947 8.18112 6.10281 8.18112 6.41614V7.46947H8.34778C8.84112 7.46947 9.02778 7.76281 9.08778 7.88281C9.14778 8.00281 9.24111 8.33614 8.91445 8.70947L7.28112 10.5695C7.12778 10.7361 6.92111 10.8295 6.71445 10.8295ZM6.34778 8.02281H6.46111C6.73445 8.02281 6.96111 8.24947 6.96111 8.52281V9.40947L7.78778 8.46947H7.67445C7.40112 8.46947 7.17445 8.24281 7.17445 7.96947V7.08281L6.34778 8.02281Z" fill="#191925"/>
</svg>
