<svg width="24" height="26" viewBox="0 0 14 16" fill="none" xmlns="http://www.w3.org/2000/svg">
<path d="M5.1064 7.74668C5.0864 7.74668 5.07307 7.74668 5.05307 7.74668C5.01973 7.74001 4.97307 7.74001 4.93307 7.74668C2.99973 7.68668 1.53973 6.16668 1.53973 4.29334C1.53973 2.38668 3.09307 0.833344 4.99973 0.833344C6.9064 0.833344 8.45973 2.38668 8.45973 4.29334C8.45307 6.16668 6.9864 7.68668 5.1264 7.74668C5.11973 7.74668 5.11307 7.74668 5.1064 7.74668ZM4.99973 1.83334C3.6464 1.83334 2.53973 2.94001 2.53973 4.29334C2.53973 5.62668 3.57973 6.70001 4.9064 6.74668C4.9464 6.74001 5.03307 6.74001 5.11973 6.74668C6.4264 6.68668 7.45307 5.61334 7.45973 4.29334C7.45973 2.94001 6.35307 1.83334 4.99973 1.83334Z" fill="#6C6F75"/>
<path d="M10.0264 7.83332C10.0064 7.83332 9.98639 7.83332 9.96639 7.82666C9.69306 7.85332 9.41306 7.65999 9.38639 7.38666C9.35973 7.11332 9.52639 6.86666 9.79973 6.83332C9.87973 6.82666 9.96639 6.82666 10.0397 6.82666C11.0131 6.77332 11.7731 5.97332 11.7731 4.99332C11.7731 3.97999 10.9531 3.15999 9.93973 3.15999C9.66639 3.16666 9.43973 2.93999 9.43973 2.66666C9.43973 2.39332 9.66639 2.16666 9.93973 2.16666C11.4997 2.16666 12.7731 3.43999 12.7731 4.99999C12.7731 6.53332 11.5731 7.77332 10.0464 7.83332C10.0397 7.83332 10.0331 7.83332 10.0264 7.83332Z" fill="#6C6F75"/>
<path d="M5.11307 15.0334C3.80641 15.0334 2.49307 14.7 1.49974 14.0334C0.573073 13.42 0.0664062 12.58 0.0664062 11.6667C0.0664062 10.7534 0.573073 9.90669 1.49974 9.28669C3.49974 7.96002 6.73974 7.96002 8.72641 9.28669C9.64641 9.90002 10.1597 10.74 10.1597 11.6534C10.1597 12.5667 9.65307 13.4134 8.72641 14.0334C7.72641 14.7 6.41974 15.0334 5.11307 15.0334ZM2.05307 10.1267C1.41307 10.5534 1.06641 11.1 1.06641 11.6734C1.06641 12.24 1.41974 12.7867 2.05307 13.2067C3.71307 14.32 6.51307 14.32 8.17307 13.2067C8.81307 12.78 9.15974 12.2334 9.15974 11.66C9.15974 11.0934 8.80641 10.5467 8.17307 10.1267C6.51307 9.02002 3.71307 9.02002 2.05307 10.1267Z" fill="#6C6F75"/>
<path d="M11.2264 13.8333C10.9931 13.8333 10.7864 13.6733 10.7397 13.4333C10.6864 13.16 10.8597 12.9 11.1264 12.84C11.5464 12.7533 11.9331 12.5867 12.2331 12.3533C12.6131 12.0667 12.8197 11.7067 12.8197 11.3267C12.8197 10.9467 12.6131 10.5867 12.2397 10.3067C11.9464 10.08 11.5797 9.92001 11.1464 9.82001C10.8797 9.76001 10.7064 9.49335 10.7664 9.22001C10.8264 8.95335 11.0931 8.78001 11.3664 8.84001C11.9397 8.96668 12.4397 9.19335 12.8464 9.50668C13.4664 9.97335 13.8197 10.6333 13.8197 11.3267C13.8197 12.02 13.4597 12.68 12.8397 13.1533C12.4264 13.4733 11.9064 13.7067 11.3331 13.82C11.2931 13.8333 11.2597 13.8333 11.2264 13.8333Z" fill="#6C6F75"/>
</svg>
