<svg width="32" height="32" viewBox="0 0 30 30" fill="none" xmlns="http://www.w3.org/2000/svg">
<circle cx="15" cy="15" r="14.5" fill="#CBD2D9" stroke="white"/>
<path d="M11.4763 20.154C10.4123 20.154 9.57699 19.8787 8.97032 19.328C8.37299 18.768 8.07432 17.9933 8.07432 17.004H9.36232C9.36232 17.6573 9.54899 18.166 9.92232 18.53C10.2957 18.894 10.8137 19.076 11.4763 19.076C12.055 19.076 12.5217 18.9173 12.8763 18.6C13.2403 18.2827 13.4223 17.8627 13.4223 17.34C13.4223 16.78 13.2497 16.3507 12.9043 16.052C12.559 15.744 12.0597 15.59 11.4063 15.59H10.7063V14.498H11.4203C11.999 14.498 12.4377 14.3627 12.7363 14.092C13.0443 13.812 13.1983 13.4153 13.1983 12.902C13.1983 12.454 13.035 12.09 12.7083 11.81C12.391 11.53 11.971 11.39 11.4483 11.39C10.8697 11.39 10.4077 11.5533 10.0623 11.88C9.71699 12.1973 9.54432 12.6313 9.54432 13.182H8.29832C8.29832 12.314 8.58299 11.6233 9.15232 11.11C9.72165 10.5873 10.487 10.326 11.4483 10.326C12.0457 10.326 12.573 10.4333 13.0303 10.648C13.497 10.8627 13.8563 11.166 14.1083 11.558C14.3697 11.9407 14.5003 12.3887 14.5003 12.902C14.5003 13.4433 14.351 13.896 14.0523 14.26C13.7537 14.6147 13.3197 14.8667 12.7503 15.016C13.329 15.0907 13.8003 15.3473 14.1643 15.786C14.5283 16.2153 14.7103 16.7333 14.7103 17.34C14.7103 17.8907 14.5703 18.3807 14.2903 18.81C14.0197 19.23 13.637 19.5613 13.1423 19.804C12.657 20.0373 12.1017 20.154 11.4763 20.154ZM19.519 18.376H18.371V16.136H16.159V15.058H18.371V12.804H19.519V15.058H21.731V16.136H19.519V18.376Z" fill="#656E77"/>
</svg>
